<svg id="noun_Cup_780359" xmlns="http://www.w3.org/2000/svg" width="41.919" height="45" viewBox="0 0 41.919 45">
  <g id="Grupo_94" data-name="Grupo 94" transform="translate(0)">
    <g id="Grupo_93" data-name="Grupo 93">
      <path id="Trazado_113" data-name="Trazado 113" d="M20.814,0A21.051,21.051,0,0,0,0,21.249C.29,33.259,9.492,42.462,20.814,42.5a20.41,20.41,0,0,0,10.271-2.772,23.109,23.109,0,0,1,4.166,2.518c1.105.761,2.228,1.522,3.188,2.047a6.75,6.75,0,0,0,1.341.616,1.968,1.968,0,0,0,1.667-.254,1.687,1.687,0,0,0,.435-1.612,7.755,7.755,0,0,0-.4-1.5c-.38-1.069-.942-2.319-1.522-3.569A31.239,31.239,0,0,1,38.1,33.1a21.483,21.483,0,0,0,3.532-11.829C41.683,9.221,32.5.018,20.814,0Zm0,2.047a18.988,18.988,0,0,1,18.767,19.22,19.4,19.4,0,0,1-3.315,10.869,1.817,1.817,0,0,0-.181,1.558A27.949,27.949,0,0,0,38.1,38.821a33.222,33.222,0,0,1,1.576,3.8,32.559,32.559,0,0,1-3.261-2.065,25.891,25.891,0,0,0-4.547-2.735,1.612,1.612,0,0,0-1.594.036,18.475,18.475,0,0,1-9.456,2.609C10.507,40.415,2.337,32.245,2.047,21.177A18.967,18.967,0,0,1,20.814,2.047ZM15.47,8.713a1.315,1.315,0,0,0-.851.453,3.194,3.194,0,0,0-.091,1.648c.235,1.159-.58,2.047-.924,3.007a5.254,5.254,0,0,0,0,1.685,9.4,9.4,0,0,0,.924,1.866,1.051,1.051,0,0,0,1.395.471,1.079,1.079,0,0,0,.4-1.413l-.634-1.214a1.921,1.921,0,0,1-.091-.96,5.372,5.372,0,0,0,.978-3.532,2.847,2.847,0,0,0-.326-1.648,1.4,1.4,0,0,0-.779-.362Zm5.108,0a1.36,1.36,0,0,0-.851.453,3.008,3.008,0,0,0-.072,1.648c.217,1.159-.6,2.047-.942,3.007a5.253,5.253,0,0,0,0,1.685,9.4,9.4,0,0,0,.924,1.866,1.014,1.014,0,1,0,1.793-.942c-.235-.453-.489-.924-.706-1.359a1.867,1.867,0,0,1,.072-.96,5.186,5.186,0,0,0,.888-3.388,2.847,2.847,0,0,0-.326-1.648,1.4,1.4,0,0,0-.779-.362Zm5.108,0a1.36,1.36,0,0,0-.851.453,3.015,3.015,0,0,0-.072,1.648,3.837,3.837,0,0,1-.652,2.337,2.975,2.975,0,0,0-.362,1.5,5.7,5.7,0,0,0,1,2.717,1.014,1.014,0,1,0,1.793-.942L25.9,15.217a1.65,1.65,0,0,1,0-1.105,5.575,5.575,0,0,0,.906-3.388,3,3,0,0,0-.344-1.648,1.349,1.349,0,0,0-.779-.362ZM9.855,18.948a1.065,1.065,0,0,0-.924,1.014A11.231,11.231,0,0,0,27.336,28.64a11.623,11.623,0,0,0,4.746-1.413,7.7,7.7,0,0,0,2.029-1.576c1.214-1.54,1.141-4-.362-5.018a4.537,4.537,0,0,0-2.337-.652A1.065,1.065,0,0,0,30.4,18.948H9.855Zm21.376,3.1a3.652,3.652,0,0,1,1.395.29,1.453,1.453,0,0,1-.072,1.975,5.269,5.269,0,0,1-1.467,1.123,9.2,9.2,0,0,1-1.485.652,11.164,11.164,0,0,0,1.63-4.04ZM9.855,32.245a1.067,1.067,0,0,0-.978,1.069,1.079,1.079,0,0,0,1.069.978H30.4a1.024,1.024,0,1,0,0-2.047H9.855Z" fill="#fff"/>
    </g>
  </g>
</svg>
