<svg xmlns="http://www.w3.org/2000/svg" width="28" height="28" viewBox="0 0 28 28">
  <path id="icon_linkedin" d="M25.857,24.6V19.132c0-2.928-1.563-4.291-3.647-4.291a3.145,3.145,0,0,0-2.856,1.575V15.065H16.186c.042.895,0,9.533,0,9.533h3.169V19.274a2.161,2.161,0,0,1,.1-.772,1.733,1.733,0,0,1,1.625-1.159c1.147,0,1.605.874,1.605,2.155v5.1h3.168ZM12.848,13.764a1.652,1.652,0,1,0,.021-3.294,1.652,1.652,0,1,0-.041,3.294ZM18,32A14,14,0,1,1,32,18,14,14,0,0,1,18,32Zm-3.568-7.4V15.065H11.264V24.6Z" transform="translate(-4 -4)" fill="#0a7bba" fill-rule="evenodd"/>
</svg>
