<svg xmlns="http://www.w3.org/2000/svg" width="28" height="28" viewBox="0 0 28 28">
  <path id="icon_twitter" d="M17.724,5.157a14,14,0,1,0,14,14A14,14,0,0,0,17.724,5.157Zm7.052,11.178c.007.151.01.3.01.457A10.035,10.035,0,0,1,9.339,25.245a7.215,7.215,0,0,0,.841.049,7.079,7.079,0,0,0,4.382-1.51,3.533,3.533,0,0,1-3.3-2.451,3.446,3.446,0,0,0,.663.063,3.506,3.506,0,0,0,.93-.123,3.531,3.531,0,0,1-2.831-3.459c0-.015,0-.03,0-.045a3.516,3.516,0,0,0,1.6.442A3.533,3.533,0,0,1,10.536,13.5a10.017,10.017,0,0,0,7.273,3.686,3.53,3.53,0,0,1,6.012-3.218,7.047,7.047,0,0,0,2.241-.856,3.538,3.538,0,0,1-1.552,1.952,7.054,7.054,0,0,0,2.027-.555A7.128,7.128,0,0,1,24.776,16.335Z" transform="translate(-3.723 -5.157)" fill="#5fa9dd" fill-rule="evenodd"/>
</svg>
