<svg xmlns="http://www.w3.org/2000/svg" xmlns:xlink="http://www.w3.org/1999/xlink" width="103.18" height="40" viewBox="0 0 103.18 40">
  <defs>
    <clipPath id="clip-path">
      <path id="path3039" d="M79.928-506.555h103.18v-40H79.928Z" transform="translate(-79.928 546.555)"/>
    </clipPath>
    <clipPath id="clip-path-2">
      <path id="path3051" d="M83.719-418.018h3.045v5.058H83.719Z" transform="translate(-83.719 418.018)"/>
    </clipPath>
    <clipPath id="clip-path-3">
      <path id="path3055" d="M83.719-412.96h3.045v-5.058H83.719Z" transform="translate(-83.719 418.018)"/>
    </clipPath>
    <clipPath id="clip-path-4">
      <path id="path3075" d="M98.987-417.632h3.57v4.959h-3.57v-4.959Z" transform="translate(-98.987 417.632)"/>
    </clipPath>
    <clipPath id="clip-path-5">
      <path id="path3079" d="M98.986-412.673h3.57v-4.959h-3.57Z" transform="translate(-98.986 417.632)"/>
    </clipPath>
    <clipPath id="clip-path-6">
      <path id="path3099" d="M116.561-418.018h3.878v5.058h-3.878Z" transform="translate(-116.561 418.018)"/>
    </clipPath>
    <clipPath id="clip-path-7">
      <path id="path3103" d="M116.561-412.96h3.878v-5.058h-3.878Z" transform="translate(-116.561 418.018)"/>
    </clipPath>
    <clipPath id="clip-path-8">
      <path id="path3123" d="M135.521-424.372h3.571v6.6h-3.571Z" transform="translate(-135.521 424.372)"/>
    </clipPath>
    <clipPath id="clip-path-9">
      <path id="path3127" d="M135.521-417.773h3.571v-6.6h-3.571Z" transform="translate(-135.521 424.371)"/>
    </clipPath>
    <clipPath id="clip-path-10">
      <path id="path3147" d="M152.749-418.018h3.511v5.058h-3.511Z" transform="translate(-152.749 418.018)"/>
    </clipPath>
    <clipPath id="clip-path-11">
      <path id="path3151" d="M152.749-412.96h3.511v-5.058h-3.511Z" transform="translate(-152.749 418.018)"/>
    </clipPath>
    <clipPath id="clip-path-12">
      <path id="path3171" d="M177.861-418.018h3.878v5.058h-3.878Z" transform="translate(-177.861 418.018)"/>
    </clipPath>
    <clipPath id="clip-path-13">
      <path id="path3175" d="M177.861-412.96h3.878v-5.058h-3.878Z" transform="translate(-177.861 418.018)"/>
    </clipPath>
    <clipPath id="clip-path-14">
      <path id="path3195" d="M196.821-418.018h6.546v4.96h-6.546Z" transform="translate(-196.821 418.018)"/>
    </clipPath>
    <clipPath id="clip-path-15">
      <path id="path3199" d="M196.821-413.058h6.546v-4.96h-6.546Z" transform="translate(-196.821 418.018)"/>
    </clipPath>
    <clipPath id="clip-path-16">
      <path id="path3219" d="M226.125-418.018h3.749v6.844h-3.749Z" transform="translate(-226.125 418.018)"/>
    </clipPath>
    <clipPath id="clip-path-17">
      <path id="path3223" d="M226.125-411.174h3.749v-6.844h-3.749Z" transform="translate(-226.125 418.018)"/>
    </clipPath>
    <clipPath id="clip-path-18">
      <path id="path3243" d="M244.585-417.9h2.381v4.929h-2.381Z" transform="translate(-244.585 417.901)"/>
    </clipPath>
    <clipPath id="clip-path-19">
      <path id="path3247" d="M244.585-412.971h2.381V-417.9h-2.381Z" transform="translate(-244.585 417.899)"/>
    </clipPath>
    <clipPath id="clip-path-20">
      <path id="path3267" d="M254.853-418.018h3.878v5.058h-3.878Z" transform="translate(-254.853 418.018)"/>
    </clipPath>
    <clipPath id="clip-path-21">
      <path id="path3271" d="M254.853-412.96h3.878v-5.058h-3.878Z" transform="translate(-254.853 418.018)"/>
    </clipPath>
    <clipPath id="clip-path-22">
      <path id="path3291" d="M273.813-418.018h3.571v4.96h-3.571Z" transform="translate(-273.813 418.018)"/>
    </clipPath>
    <clipPath id="clip-path-23">
      <path id="path3295" d="M273.813-413.058h3.571v-4.96h-3.571Z" transform="translate(-273.813 418.018)"/>
    </clipPath>
    <clipPath id="clip-path-24">
      <path id="path3315" d="M291.2-425.32h3.838v6.942H291.2Z" transform="translate(-291.195 425.32)"/>
    </clipPath>
    <clipPath id="clip-path-25">
      <path id="path3319" d="M291.2-418.378h3.838v-6.942H291.2Z" transform="translate(-291.195 425.32)"/>
    </clipPath>
    <clipPath id="clip-path-26">
      <path id="path3339" d="M309.808-418.018h3.878v5.058h-3.878Z" transform="translate(-309.808 418.018)"/>
    </clipPath>
    <clipPath id="clip-path-27">
      <path id="path3343" d="M309.808-412.96h3.878v-5.058h-3.878Z" transform="translate(-309.808 418.018)"/>
    </clipPath>
  </defs>
  <g id="corfo" transform="translate(-326.653 -89.339)">
    <g id="g3033" transform="translate(326.653 89.339)">
      <g id="g3035" transform="translate(0)" clip-path="url(#clip-path)">
        <g id="g3041" transform="translate(86.518 0)">
          <path id="path3043" d="M-1.317-84.44A17,17,0,0,0,9.865-89.363a16.946,16.946,0,0,0,5.022-12.562,16.936,16.936,0,0,0-4.129-11.708.5.5,0,0,0-.353-.159.459.459,0,0,0-.458.459.457.457,0,0,0,.017.127c2.074,5.575.867,11.179-2.794,12.662C4.6-99.508,1.5-100.761-.954-103.477a.491.491,0,0,0-.682-.006.471.471,0,0,0-.047.612l.051.059a12.883,12.883,0,0,1,3.2,8.83,12.577,12.577,0,0,1-3.2,8.75.458.458,0,0,0-.145.333.458.458,0,0,0,.458.458" transform="translate(1.775 113.793)" fill="#006cb7"/>
        </g>
        <g id="g3045" transform="translate(0.978 33.156)">
          <g id="g3057">
            <g id="g3059" opacity="0.6" clip-path="url(#clip-path-2)">
              <g id="g3061" transform="translate(0)">
                <g id="g3063" clip-path="url(#clip-path-3)">
                  <g id="g3065" transform="translate(0 0)">
                    <path id="path3067" d="M-1.426-3.566c0,1.171,2.549.764,2.549,2.43A1.433,1.433,0,0,1-.454.253,2.686,2.686,0,0,1-1.922-.213l.189-.377A2.4,2.4,0,0,0-.445-.124.962.962,0,0,0,.647-1.116c0-1.329-2.519-.814-2.519-2.46,0-.635.456-1.23,1.478-1.23a2.957,2.957,0,0,1,1.5.358l-.159.366A2.507,2.507,0,0,0-.395-4.409c-.694,0-1.032.317-1.032.843" transform="translate(1.922 4.806)" fill="#006cb7"/>
                  </g>
                </g>
              </g>
            </g>
          </g>
        </g>
        <g id="g3069" transform="translate(4.916 33.256)">
          <g id="g3081">
            <g id="g3083" opacity="0.6" clip-path="url(#clip-path-4)">
              <g id="g3085" transform="translate(0)">
                <g id="g3087" clip-path="url(#clip-path-5)">
                  <g id="g3089" transform="translate(0 0)">
                    <path id="path3091" d="M-9.216-13.981l-.069-.536a2.179,2.179,0,0,1-1.5.635c-1.012,0-1.636-.635-1.636-1.954v-3h.486v2.916c0,1.14.337,1.626,1.22,1.626a2.168,2.168,0,0,0,1.369-.565v-3.977h.5v4.86Z" transform="translate(12.419 18.841)" fill="#006cb7"/>
                  </g>
                </g>
              </g>
            </g>
          </g>
        </g>
        <g id="g3093" transform="translate(9.45 33.156)">
          <g id="g3105">
            <g id="g3107" opacity="0.6" clip-path="url(#clip-path-6)">
              <g id="g3109">
                <g id="g3111" clip-path="url(#clip-path-7)">
                  <g id="g3113" transform="translate(0 0)">
                    <path id="path3115" d="M-5.678-1.085c-1.062,0-1.5.952-1.5,1.9H-4.25c0-.952-.337-1.9-1.428-1.9m-1.5,2.291c0,1.408.7,2,1.686,2a2.821,2.821,0,0,0,1.557-.546l.159.357A3.337,3.337,0,0,1-5.52,3.6c-1.26,0-2.132-.863-2.132-2.569,0-1.567.744-2.489,2-2.489,1.319,0,1.875,1.1,1.875,2.321v.347h-3.4Z" transform="translate(7.652 1.462)" fill="#006cb7"/>
                  </g>
                </g>
              </g>
            </g>
          </g>
        </g>
        <g id="g3117" transform="translate(14.34 31.517)">
          <g id="g3129">
            <g id="g3131" opacity="0.6" clip-path="url(#clip-path-8)">
              <g id="g3133" transform="translate(0 0)">
                <g id="g3135" clip-path="url(#clip-path-9)">
                  <g id="g3137" transform="translate(0 0)">
                    <path id="path3139" d="M-6.448-2.405l-.972-.357a.542.542,0,0,0-.734.258l-.288-.129a.792.792,0,0,1,1.1-.536l.952.357A.44.44,0,0,0-5.754-3.1l.288.109a.693.693,0,0,1-.982.585m.833,5.762V.391c0-1.021-.3-1.6-1.23-1.6A1.936,1.936,0,0,0-8.2-.531V3.357H-8.69V-1.5h.317l.129.585A2.162,2.162,0,0,1-6.726-1.6c1.091,0,1.607.665,1.607,1.855v3.1Z" transform="translate(8.69 3.241)" fill="#006cb7"/>
                  </g>
                </g>
              </g>
            </g>
          </g>
        </g>
        <g id="g3141" transform="translate(18.784 33.156)">
          <g id="g3153">
            <g id="g3155" opacity="0.6" clip-path="url(#clip-path-10)">
              <g id="g3157">
                <g id="g3159" clip-path="url(#clip-path-11)">
                  <g id="g3161" transform="translate(0 0)">
                    <path id="path3163" d="M-8.759-7.532h-1.319c-.962,0-1.259.417-1.259.963a1.028,1.028,0,0,0,1.17,1.1,1.9,1.9,0,0,0,1.408-.744Zm.139,2.341-.109-.655a2.023,2.023,0,0,1-1.537.754A1.427,1.427,0,0,1-11.8-6.55c0-.813.595-1.359,1.666-1.359h1.378v-.456c0-.961-.367-1.388-1.21-1.388a3.639,3.639,0,0,0-1.488.327l-.139-.367a3.964,3.964,0,0,1,1.7-.358,1.477,1.477,0,0,1,1.607,1.7v3.263Z" transform="translate(11.804 10.151)" fill="#006cb7"/>
                  </g>
                </g>
              </g>
            </g>
          </g>
        </g>
        <g id="g3165" transform="translate(25.262 33.156)">
          <g id="g3177">
            <g id="g3179" opacity="0.8" clip-path="url(#clip-path-12)">
              <g id="g3181">
                <g id="g3183" clip-path="url(#clip-path-13)">
                  <g id="g3185" transform="translate(0 0)">
                    <path id="path3187" d="M-5.677-1.085c-1.061,0-1.5.952-1.5,1.9h2.926c0-.952-.337-1.9-1.428-1.9m-1.5,2.291c0,1.408.7,2,1.686,2a2.819,2.819,0,0,0,1.557-.546l.159.357A3.336,3.336,0,0,1-5.519,3.6c-1.259,0-2.132-.863-2.132-2.569,0-1.567.743-2.489,2-2.489,1.319,0,1.874,1.1,1.874,2.321v.347Z" transform="translate(7.651 1.462)" fill="#006cb7"/>
                  </g>
                </g>
              </g>
            </g>
          </g>
        </g>
        <g id="g3189" transform="translate(30.152 33.156)">
          <g id="g3201">
            <g id="g3203" opacity="0.8" clip-path="url(#clip-path-14)">
              <g id="g3205">
                <g id="g3207" clip-path="url(#clip-path-15)">
                  <g id="g3209" transform="translate(0 0)">
                    <path id="path3211" d="M-8.7-14.267v-2.966c0-1.021-.268-1.6-1.2-1.6a1.889,1.889,0,0,0-1.339.674v3.888h-.486v-4.86h.317l.129.595a2.111,2.111,0,0,1,1.488-.694,1.388,1.388,0,0,1,1.389.774,2.216,2.216,0,0,1,1.537-.774c1.091,0,1.686.635,1.686,1.855v3.1h-.5v-2.966c0-1.031-.367-1.6-1.3-1.6a1.929,1.929,0,0,0-1.319.674,3.094,3.094,0,0,1,.089.784v3.1Z" transform="translate(11.728 19.227)" fill="#006cb7"/>
                  </g>
                </g>
              </g>
            </g>
          </g>
        </g>
        <g id="g3213" transform="translate(37.711 33.156)">
          <g id="g3225">
            <g id="g3227" opacity="0.8" clip-path="url(#clip-path-16)">
              <g id="g3229">
                <g id="g3231" clip-path="url(#clip-path-17)">
                  <g id="g3233" transform="translate(0 0)">
                    <path id="path3235" d="M-1.4-11.842a1.862,1.862,0,0,0,1.3.565c1.032,0,1.468-.654,1.468-2.162,0-1.339-.377-2.123-1.408-2.123a1.99,1.99,0,0,0-1.359.645Zm-.04-3.432A2.038,2.038,0,0,1,.04-15.958c1.29,0,1.825.913,1.825,2.519,0,1.726-.783,2.539-1.964,2.539a1.964,1.964,0,0,1-1.379-.555l.079.584v1.756h-.486v-6.744h.317l.129.585Z" transform="translate(1.884 15.958)" fill="#006cb7"/>
                  </g>
                </g>
              </g>
            </g>
          </g>
        </g>
        <g id="g3237" transform="translate(42.473 33.186)">
          <g id="g3249">
            <g id="g3251" opacity="0.8" clip-path="url(#clip-path-18)">
              <g id="g3253" transform="translate(0 0)">
                <g id="g3255" clip-path="url(#clip-path-19)">
                  <g id="g3257" transform="translate(0 0)">
                    <path id="path3259" d="M-6.676-1.456a1.82,1.82,0,0,0-.635-.09,1.7,1.7,0,0,0-1.2.624V2.967H-9v-4.86h.317l.129.595a1.742,1.742,0,0,1,1.289-.664,2.02,2.02,0,0,1,.645.088Z" transform="translate(8.997 1.962)" fill="#006cb7"/>
                  </g>
                </g>
              </g>
            </g>
          </g>
        </g>
        <g id="g3261" transform="translate(45.122 33.156)">
          <g id="g3273">
            <g id="g3275" opacity="0.8" clip-path="url(#clip-path-20)">
              <g id="g3277">
                <g id="g3279" clip-path="url(#clip-path-21)">
                  <g id="g3281" transform="translate(0 0)">
                    <path id="path3283" d="M-5.678-1.085c-1.062,0-1.5.952-1.5,1.9H-4.25c0-.952-.337-1.9-1.428-1.9m-1.5,2.291c0,1.408.7,2,1.686,2a2.819,2.819,0,0,0,1.557-.546l.159.357A3.337,3.337,0,0,1-5.52,3.6c-1.259,0-2.132-.863-2.132-2.569,0-1.567.744-2.489,2-2.489,1.319,0,1.875,1.1,1.875,2.321v.347h-3.4Z" transform="translate(7.652 1.462)" fill="#006cb7"/>
                  </g>
                </g>
              </g>
            </g>
          </g>
        </g>
        <g id="g3285" transform="translate(50.013 33.156)">
          <g id="g3297">
            <g id="g3299" opacity="0.8" clip-path="url(#clip-path-22)">
              <g id="g3301">
                <g id="g3303" clip-path="url(#clip-path-23)">
                  <g id="g3305" transform="translate(0 0)">
                    <path id="path3307" d="M-8.845-14.267v-2.966c0-1.021-.3-1.6-1.23-1.6a1.935,1.935,0,0,0-1.359.674v3.888h-.486v-4.86h.317l.129.585a2.162,2.162,0,0,1,1.518-.684c1.091,0,1.607.665,1.607,1.855v3.1Z" transform="translate(11.92 19.227)" fill="#006cb7"/>
                  </g>
                </g>
              </g>
            </g>
          </g>
        </g>
        <g id="g3309" transform="translate(54.496 31.272)">
          <g id="g3321">
            <g id="g3323" opacity="0.8" clip-path="url(#clip-path-24)">
              <g id="g3325" transform="translate(0 0)">
                <g id="g3327" clip-path="url(#clip-path-25)">
                  <g id="g3329" transform="translate(0 0)">
                    <path id="path3331" d="M-9.645-7.645a2.289,2.289,0,0,0-1.329-.4c-1.061,0-1.527.863-1.527,2.132,0,1.23.4,2.172,1.468,2.172a1.855,1.855,0,0,0,1.389-.714Zm.049,3.57a1.973,1.973,0,0,1-1.458.714C-12.213-3.361-13-4.254-13-5.91c0-1.418.655-2.51,2.013-2.51a2.527,2.527,0,0,1,1.369.387l-.03-.784V-10.3h.486V-3.46h-.328Z" transform="translate(12.997 10.303)" fill="#006cb7"/>
                  </g>
                </g>
              </g>
            </g>
          </g>
        </g>
        <g id="g3333" transform="translate(59.297 33.156)">
          <g id="g3345">
            <g id="g3347" opacity="0.8" clip-path="url(#clip-path-26)">
              <g id="g3349">
                <g id="g3351" clip-path="url(#clip-path-27)">
                  <g id="g3353" transform="translate(0 0)">
                    <path id="path3355" d="M-5.677-1.085c-1.061,0-1.5.952-1.5,1.9h2.926c0-.952-.337-1.9-1.429-1.9m-1.5,2.291c0,1.408.7,2,1.686,2a2.82,2.82,0,0,0,1.557-.546l.159.357A3.338,3.338,0,0,1-5.518,3.6c-1.26,0-2.132-.863-2.132-2.569,0-1.567.743-2.489,2-2.489,1.319,0,1.875,1.1,1.875,2.321v.347Z" transform="translate(7.651 1.462)" fill="#006cb7"/>
                  </g>
                </g>
              </g>
            </g>
          </g>
        </g>
        <g id="g3357" transform="translate(65.983 33.156)">
          <path id="path3359" d="M-10.358-13.3a3.076,3.076,0,0,1-1.567.436c-1.131,0-2.034-.675-2.034-2.529,0-1.676.9-2.53,2.014-2.53a3.081,3.081,0,0,1,1.547.377l-.158.367a2.622,2.622,0,0,0-1.389-.337c-.972,0-1.547.824-1.547,2.123,0,1.488.6,2.132,1.567,2.132a2.6,2.6,0,0,0,1.458-.426Z" transform="translate(13.958 17.919)" fill="#006cb7"/>
        </g>
        <g id="g3361" transform="translate(70.428 33.186)">
          <path id="path3363" d="M-6.677-1.456a1.822,1.822,0,0,0-.635-.09,1.7,1.7,0,0,0-1.2.624V2.967H-9v-4.86h.317l.129.595a1.742,1.742,0,0,1,1.289-.664,2.019,2.019,0,0,1,.645.088Z" transform="translate(8.998 1.962)" fill="#006cb7"/>
        </g>
        <g id="g3365" transform="translate(73.076 33.156)">
          <path id="path3367" d="M-5.677-1.085c-1.061,0-1.5.952-1.5,1.9h2.926c0-.952-.338-1.9-1.429-1.9m-1.5,2.291c0,1.408.7,2,1.686,2a2.82,2.82,0,0,0,1.557-.546l.159.357A3.337,3.337,0,0,1-5.519,3.6c-1.26,0-2.132-.863-2.132-2.569,0-1.567.743-2.489,2-2.489,1.319,0,1.875,1.1,1.875,2.321v.347Z" transform="translate(7.651 1.462)" fill="#006cb7"/>
        </g>
        <g id="g3369" transform="translate(77.808 33.156)">
          <path id="path3371" d="M-10.358-13.3a3.079,3.079,0,0,1-1.568.436c-1.13,0-2.033-.675-2.033-2.529,0-1.676.9-2.53,2.013-2.53a3.082,3.082,0,0,1,1.547.377l-.159.367a2.624,2.624,0,0,0-1.389-.337c-.972,0-1.547.824-1.547,2.123,0,1.488.6,2.132,1.567,2.132a2.6,2.6,0,0,0,1.458-.426Z" transform="translate(13.958 17.919)" fill="#006cb7"/>
        </g>
        <g id="g3373" transform="translate(82.104 33.156)">
          <path id="path3375" d="M-5.678-1.085c-1.061,0-1.5.952-1.5,1.9H-4.25c0-.952-.338-1.9-1.428-1.9m-1.5,2.291c0,1.408.7,2,1.686,2a2.82,2.82,0,0,0,1.557-.546l.159.357A3.339,3.339,0,0,1-5.52,3.6c-1.259,0-2.132-.863-2.132-2.569,0-1.567.743-2.489,2-2.489,1.319,0,1.875,1.1,1.875,2.321v.347Z" transform="translate(7.652 1.462)" fill="#006cb7"/>
        </g>
        <g id="g3377" transform="translate(40.026 10.427)">
          <path id="path3379" d="M-17.769-21.877a7.137,7.137,0,0,1-2.559.317H-21.2v-5.384h.689a8.966,8.966,0,0,1,2.583.268,2.171,2.171,0,0,1,1.13.922,2.729,2.729,0,0,1,.4,1.459,2.913,2.913,0,0,1-.361,1.459,2.3,2.3,0,0,1-1.011.958m6.46,9.768q-.555-.8-1.475-2.4a32.527,32.527,0,0,0-2.268-3.55,8.046,8.046,0,0,0-1.65-1.608,5.076,5.076,0,0,0,2.369-1.78,5.1,5.1,0,0,0,.769-2.827,4.852,4.852,0,0,0-1.569-3.8,6.566,6.566,0,0,0-4.4-1.407h-4.409V-10.77H-21.2v-8.144h.2a3.751,3.751,0,0,1,1.76.3,5.521,5.521,0,0,1,1.173.983,14.211,14.211,0,0,1,1.429,1.835l.844,1.461.78,1.366.491.737c.075.108.126.183.151.228l.767,1.232h3.234l-.932-1.339Z" transform="translate(23.945 29.482)" fill="#006cb7"/>
        </g>
        <g id="g3381" transform="translate(55.879 10.427)">
          <path id="path3383" d="M0,0H9.386V2.641H2.779V7.359H9.386V9.992H2.779v8.72H0Z" fill="#006cb7"/>
        </g>
        <g id="g3385" transform="translate(18.194 10.159)">
          <path id="path3387" d="M-40.75-42.28a6.153,6.153,0,0,1-4.722,2.057,6.14,6.14,0,0,1-4.691-2.017,7.133,7.133,0,0,1-1.874-5.053,7.277,7.277,0,0,1,1.868-5.147,6.219,6.219,0,0,1,4.77-2.016,6.1,6.1,0,0,1,4.65,2.036A7.1,7.1,0,0,1-38.857-47.4a7.275,7.275,0,0,1-1.893,5.12m2.044-11.952A9.159,9.159,0,0,0-45.5-56.978a9.013,9.013,0,0,0-6.748,2.745,9.553,9.553,0,0,0-2.669,6.939,9.336,9.336,0,0,0,2.65,6.8,8.887,8.887,0,0,0,6.629,2.712A9.412,9.412,0,0,0-38.73-40.5a9.243,9.243,0,0,0,2.738-6.851,9.4,9.4,0,0,0-2.713-6.887" transform="translate(54.915 56.978)" fill="#006cb7"/>
        </g>
        <g id="g3389" transform="translate(67.793 10.159)">
          <path id="path3391" d="M-40.751-42.28a6.155,6.155,0,0,1-4.723,2.057,6.142,6.142,0,0,1-4.692-2.017,7.134,7.134,0,0,1-1.874-5.053,7.276,7.276,0,0,1,1.868-5.147A6.22,6.22,0,0,1-45.4-54.457a6.107,6.107,0,0,1,4.65,2.036A7.1,7.1,0,0,1-38.859-47.4a7.276,7.276,0,0,1-1.893,5.12m2.044-11.952A9.16,9.16,0,0,0-45.5-56.978a9.014,9.014,0,0,0-6.748,2.745,9.553,9.553,0,0,0-2.669,6.939,9.335,9.335,0,0,0,2.65,6.8,8.887,8.887,0,0,0,6.628,2.712A9.41,9.41,0,0,0-38.733-40.5a9.242,9.242,0,0,0,2.739-6.851,9.4,9.4,0,0,0-2.713-6.887" transform="translate(54.917 56.978)" fill="#006cb7"/>
        </g>
        <g id="g3393" transform="translate(0 10.185)">
          <path id="path3395" d="M-44.919-42.205a7.463,7.463,0,0,1-5.367,2.057,7.455,7.455,0,0,1-5.332-2.017,6.666,6.666,0,0,1-2.13-5.053,6.788,6.788,0,0,1,2.123-5.147A7.557,7.557,0,0,1-50.2-54.382a7.4,7.4,0,0,1,5.284,2.036l.045.046v-3.036a15.081,15.081,0,0,0-6.16-1.541,9.105,9.105,0,0,0-6.759,2.787,9.415,9.415,0,0,0-2.74,6.871,9.881,9.881,0,0,0,1.2,4.781,9.012,9.012,0,0,0,3.25,3.471,9.392,9.392,0,0,0,5,1.259,12.519,12.519,0,0,0,6.4-1.607v-3.115l-.023.013c-.069.071-.139.144-.211.213" transform="translate(60.534 56.877)" fill="#006cb7"/>
        </g>
        <g id="g3397" transform="translate(90.357 5.228)">
          <path id="path3399" d="M-16.591-2.811a3.26,3.26,0,0,0-2.417-.977,3.206,3.206,0,0,0-2.4.977,3.4,3.4,0,0,0-.95,2.469,3.321,3.321,0,0,0,.943,2.418,3.161,3.161,0,0,0,2.359.966A3.347,3.347,0,0,0-16.6,2.077a3.288,3.288,0,0,0,.974-2.438,3.345,3.345,0,0,0-.966-2.45" transform="translate(22.359 3.788)" fill="#006cb7"/>
        </g>
      </g>
    </g>
  </g>
</svg>
